<?xml version="1.0" encoding="UTF-8"?>
<svg id="Layer_1" data-name="Layer 1" xmlns="http://www.w3.org/2000/svg" viewBox="0 0 76.72 106.9">
  <defs>
    <style>
      .cls-1 {
        fill: #22bfc3;
      }
    </style>
  </defs>
  <path class="cls-1" d="M74.04,84.37c-.82,7.91-3.95,11.79-9.47,11.79-8.21,0-11.94-9.25-15.22-24.62l-5.3-23.65c-3.73-16.86-6.49-27.9-8.28-33.2C32.41,4.4,27.42,0,21.9,0,13.02,0,7.35,10.29,7.05,24.17h2.69c.67-10.74,6.64-13.28,10.97-13.28,6.04,0,11.34,6.49,14.99,26.18L3.77,105.85h14.1l22.23-50.43,5.95,26.85,.46,2.09c2.39,10.29,4.92,16.63,7.76,19.02,2.91,2.39,5.89,3.51,9.03,3.51,5.37,0,13.43-3.58,13.43-22.53h-2.69Z"/>
  <polygon class="cls-1" points=".75 105.85 0 105.85 32.14 36.93 32.9 36.98 .75 105.85"/>
  <polygon class="cls-1" points="28.36 82.04 46.05 82.28 47 86.4 26.56 86.13 28.36 82.04"/>
</svg>